<?xml version="1.0" standalone="no"?>
<!DOCTYPE svg PUBLIC "-//W3C//DTD SVG 20010904//EN"
 "http://www.w3.org/TR/2001/REC-SVG-20010904/DTD/svg10.dtd">
<svg version="1.0" xmlns="http://www.w3.org/2000/svg"
 width="268.000000pt" height="268.000000pt" viewBox="0 0 268.000000 268.000000"
 preserveAspectRatio="xMidYMid meet">
<metadata>
Created by potrace 1.11, written by Peter Selinger 2001-2013
</metadata>
<g transform="translate(0.000000,268.000000) scale(0.100000,-0.100000)"
fill="#000000" stroke="none">
<path d="M1225 2555 c-215 -105 -512 -247 -577 -275 -13 -6 -30 -14 -38 -20
-20 -12 -304 -147 -352 -167 -21 -8 -38 -18 -38 -22 0 -5 332 -210 403 -248
12 -7 29 -21 38 -32 9 -11 20 -17 24 -13 5 4 5 2 1 -5 -3 -6 -2 -14 4 -18 5
-3 10 -1 10 4 0 6 4 11 10 11 5 0 9 -3 9 -7 -3 -21 2 -26 12 -13 9 13 10 13 6
0 -2 -8 -9 -14 -15 -13 -7 2 -9 -5 -6 -15 5 -14 4 -15 -5 -2 -6 8 -11 11 -11
5 0 -5 -5 -4 -11 2 -6 6 -19 9 -28 6 -13 -4 -13 -2 2 10 10 9 14 18 8 21 -5 3
-12 0 -15 -6 -3 -7 -3 -2 -1 12 5 23 4 23 -12 -5 -22 -39 -24 -52 -7 -52 7 0
10 5 7 11 -4 6 1 5 10 -3 12 -9 17 -10 17 -2 0 7 5 9 11 5 8 -5 8 -9 -1 -14
-9 -6 -9 -9 1 -13 11 -4 11 -6 1 -6 -7 -1 -10 -6 -6 -13 4 -7 3 -8 -5 -4 -6 4
-9 11 -6 16 3 5 1 11 -5 15 -5 3 -10 0 -10 -7 0 -8 -3 -9 -8 -3 -4 6 -12 11
-19 12 -6 1 -109 61 -227 133 -119 71 -220 130 -224 130 -5 0 -5 -28 -1 -62 4
-35 11 -94 14 -133 4 -38 9 -78 10 -87 2 -9 7 -48 10 -85 4 -37 9 -76 10 -85
2 -9 7 -48 10 -85 4 -37 8 -79 11 -93 2 -14 6 -54 9 -90 4 -36 8 -72 10 -80 2
-8 7 -51 10 -95 4 -44 8 -87 11 -96 2 -8 6 -40 9 -70 8 -82 12 -109 16 -113 2
-2 40 -29 84 -62 44 -32 85 -62 90 -66 6 -5 150 -112 320 -239 171 -127 317
-236 325 -242 33 -25 126 -94 137 -100 9 -6 12 139 12 608 l0 616 -47 29 c-26
16 -51 31 -56 33 -13 4 -15 50 -3 65 5 6 5 12 1 12 -5 0 -15 -9 -22 -21 -8
-12 -9 -18 -3 -15 7 5 8 1 4 -10 -4 -11 -8 -13 -11 -6 -2 7 -10 12 -17 12 -7
0 -16 7 -19 16 -3 8 -11 12 -17 8 -7 -4 -9 -3 -6 3 4 6 -1 17 -10 24 -15 12
-16 12 -10 -6 6 -17 5 -18 -5 -5 -7 8 -17 15 -23 15 -16 0 -335 195 -335 206
0 8 58 69 66 69 17 0 278 -171 276 -180 -2 -8 3 -10 13 -6 9 3 13 2 10 -3 -3
-5 -1 -12 5 -16 5 -3 10 -1 10 6 0 7 10 3 23 -9 13 -12 29 -22 35 -22 7 0 12
-5 12 -11 0 -5 4 -8 8 -5 5 3 45 -17 89 -44 l81 -48 82 49 c45 27 86 47 91 43
5 -3 12 2 15 10 3 9 10 13 15 10 5 -3 9 -1 9 4 0 10 50 37 63 34 4 -1 10 5 13
13 4 8 11 15 16 15 7 0 7 -4 1 -12 -5 -7 -9 -27 -8 -45 1 -18 -2 -30 -6 -27
-4 2 -5 12 -2 21 4 11 3 14 -6 9 -7 -5 -10 -15 -7 -23 3 -8 1 -11 -4 -8 -6 3
-7 -1 -3 -10 5 -13 7 -14 14 -3 7 11 9 10 9 -1 0 -33 14 3 16 42 2 23 4 43 5
45 1 1 2 7 3 14 0 6 43 36 94 67 50 31 162 99 248 151 86 52 168 102 183 110
79 45 252 154 256 161 3 4 -4 10 -15 14 -11 4 -89 39 -173 79 -83 40 -201 97
-262 126 -60 29 -150 72 -200 95 -49 24 -170 82 -269 129 -98 47 -179 86 -180
85 0 0 -41 -20 -91 -44z"/>
<path d="M2290 1868 c-489 -300 -656 -399 -673 -402 -10 -1 -22 -8 -26 -15 -5
-7 -11 -12 -15 -12 -20 3 -26 0 -20 -11 4 -7 3 -10 -1 -5 -5 4 -16 0 -25 -8
-16 -14 -18 -14 -23 5 -3 13 -1 18 6 13 7 -4 6 1 -2 10 -7 9 -11 18 -7 18 3 1
12 2 19 3 6 1 12 8 11 17 -1 9 4 16 11 16 7 0 11 -11 9 -24 -1 -12 2 -23 7
-23 5 0 9 5 9 11 0 5 5 7 11 3 7 -4 7 1 -1 16 -10 19 -8 25 10 45 34 36 -1 26
-59 -17 -37 -28 -48 -42 -47 -62 1 -14 5 -28 9 -32 14 -14 6 -23 -56 -62 l-64
-40 0 -609 c0 -334 2 -611 4 -615 2 -4 9 -3 16 2 14 12 -2 0 422 316 176 131
325 243 332 249 7 5 53 39 102 75 96 68 97 70 106 165 4 33 8 74 10 90 6 43
17 145 20 180 2 17 5 48 8 70 3 22 9 69 13 105 3 36 8 72 9 80 1 8 6 47 10 85
4 39 9 81 10 95 2 14 6 52 9 85 3 33 8 74 11 90 2 17 7 57 10 90 4 33 8 70 10
83 2 12 -1 22 -8 21 -7 0 -86 -46 -177 -101z m-705 -338 c-3 -5 -16 -15 -28
-21 -19 -9 -19 -8 3 10 28 23 34 26 25 11z m-56 -43 c-2 -1 -13 -9 -24 -17
-19 -14 -19 -14 -6 3 7 9 18 17 24 17 6 0 8 -1 6 -3z"/>
<path d="M686 1738 c3 -5 10 -6 15 -3 13 9 11 12 -6 12 -8 0 -12 -4 -9 -9z"/>
<path d="M1038 1533 c6 -2 12 -9 12 -14 0 -6 -4 -8 -9 -5 -9 6 -24 -35 -16
-43 3 -2 5 2 5 10 0 12 2 11 11 -1 9 -13 10 -12 5 2 -6 20 9 34 20 17 5 -8 3
-9 -5 -4 -21 12 3 -26 33 -54 l26 -24 24 26 c14 15 20 27 15 27 -6 0 -7 6 -3
13 4 6 4 9 -1 5 -5 -5 -23 3 -41 17 -39 30 -48 31 -40 8 4 -12 0 -10 -10 5 -9
12 -22 22 -28 21 -7 0 -6 -2 2 -6z m57 -34 c-5 -8 7 -13 27 -11 3 1 12 -6 20
-15 7 -9 9 -14 3 -11 -5 3 -15 0 -22 -7 -10 -11 -10 -15 0 -18 7 -3 7 -6 1 -6
-6 -1 -21 10 -34 24 -18 19 -20 28 -12 38 7 8 8 18 4 22 -4 5 -1 5 6 1 7 -4
10 -12 7 -17z"/>
<path d="M1080 1484 c0 -6 6 -17 14 -23 10 -9 16 -8 25 3 10 12 9 14 -6 12
-10 -2 -21 2 -25 8 -6 8 -8 8 -8 0z"/>
<path d="M1535 1460 c-4 -6 -12 -7 -18 -3 -8 5 -8 2 0 -9 7 -8 11 -18 8 -22
-3 -3 0 -2 7 4 6 5 13 17 14 25 3 17 -2 19 -11 5z"/>
<path d="M1470 1400 c0 -5 5 -10 10 -10 6 0 10 5 10 10 0 6 -4 10 -10 10 -5 0
-10 -4 -10 -10z"/>
</g>
</svg>
